<?xml version="1.0" encoding="UTF-8" standalone="no"?>
<!-- Created with Inkscape (http://www.inkscape.org/) -->

<svg
   width="140.0031mm"
   height="247.06245mm"
   viewBox="0 0 140.0031 247.06246"
   version="1.1"
   id="svg1"
   xml:space="preserve"
   xmlns="http://www.w3.org/2000/svg"
   xmlns:svg="http://www.w3.org/2000/svg"><defs
     id="defs1" /><g
     id="layer1"
     transform="translate(-9.9652542,-10.290885)"
     style="display:inline"><g
       id="g1"
       transform="matrix(0.17706515,0,0,0.17706515,2.423217,123.71715)"
       style="display:inline"><rect
         style="display:inline;fill:#032b44;fill-opacity:1;stroke:none;stroke-width:0.267079;stroke-linecap:round;stroke-linejoin:round;stroke-opacity:1;paint-order:stroke fill markers"
         id="rect1-8"
         width="140.0031"
         height="48.954834"
         x="9.9652557"
         y="208.35416"
         transform="matrix(5.6476388,0,0,5.6476388,-13.685454,-698.70977)" /><path
         d="M 572.85643,746.34797 405.44383,444.51036 a 4.50306,4.50306 0 0 0 -2.23438,-3.60755 4.45118,4.45118 0 0 0 -2.41845,-0.58429 c -0.0269,-0.002 -0.0542,-4.2e-4 -0.0815,-0.002 -0.0273,0.002 -0.0547,-6e-5 -0.0815,0.002 a 4.44216,4.44216 0 0 0 -4.63281,4.04755 l -177.43271,301.9819 a 4.49988,4.49988 0 1 0 7.79395,4.5 l 174.23339,-296.5364 164.47266,296.5364 a 4.49988,4.49988 0 1 0 7.79395,-4.5 z"
         fill="#3f3d56"
         id="path1" /><polygon
         points="365.125,616.374 381.871,689.362 400.794,685.02 393.053,609.967 "
         fill="#ffb6b6"
         id="polygon1"
         transform="translate(-8.9022128,5.19896)" /><path
         d="m 387.599,658.30366 -26.92944,6.17755 -8.61045,-16.827 -0.48752,-0.59653 a 26.77629,26.77629 0 0 1 -6.01512,-16.5787 l -22.38254,-59.20676 -1.83024,-0.87013 a 11.02207,11.02207 0 0 1 -4.523,-15.9356 l -2.36955,-6.26753 -66.86207,0.12272 -0.0667,-0.0188 -82.10563,-23.03173 8.62112,-51.39125 23.09605,14.52847 c 7.61055,-0.49394 137.98028,-8.4983 150.02406,20.71842 10.725,26.01751 26.18,70.467 37.25651,103.17393 a 25.53273,25.53273 0 0 0 2.051,4.225 18.44268,18.44268 0 0 1 2.93677,8.86467 21.59367,21.59367 0 0 0 0.78268,4.05611 c 4.60361,13.76246 -2.41,28.49411 -2.48132,28.64173 z"
         fill="#2f2e41"
         id="path2" /><path
         d="m 366.57619,688.28551 6.15233,-1.41159 21.77906,-15.27844 15.11442,6.81359 0.002,-4e-4 a 28.14646,28.14646 0 0 1 33.72525,21.139 l 0.20449,0.89145 -70.47847,16.17034 z"
         fill="#2f2e41"
         id="path3" /><path
         d="m 87.182927,689.97103 c 1.9239,-20.941 14.190233,-41.90707 33.864123,-49.33368 a 96.88953,96.88953 0 0 0 2.14043,66.48675 c 3.3222,8.16987 7.868,16.91081 5.26046,25.33611 -1.62234,5.24245 -5.87118,9.35 -10.6833,11.98756 -4.81242,2.63758 -10.20365,3.9942 -15.52769,5.325 l -1.02709,0.90654 C 92.081647,731.73459 85.259037,710.91202 87.182927,689.97103 Z"
         fill="#f0f0f0"
         id="path4" /><path
         d="m 121.25712,641.0254 a 82.8145,82.8145 0 0 0 -19.08061,47.24488 35.66275,35.66275 0 0 0 0.76395,11.14767 20.45422,20.45422 0 0 0 5.38916,9.31886 c 2.37262,2.44432 5.0826,4.66983 6.81972,7.64833 a 12.52416,12.52416 0 0 1 0.9398,10.19932 c -1.31436,4.19886 -4.05905,7.675 -6.86126,10.98117 -3.11132,3.67084 -6.40118,7.43439 -7.62052,12.20761 -0.14774,0.57835 -1.0365,0.31529 -0.889,-0.26218 2.12146,-8.3046 9.95851,-13.2348 13.52953,-20.768 1.66631,-3.51511 2.28338,-7.55368 0.49987,-11.15046 -1.55961,-3.14523 -4.35221,-5.44259 -6.77592,-7.89675 a 21.82617,21.82617 0 0 1 -5.60894,-8.9155 32.969,32.969 0 0 1 -1.18972,-11.07717 80.34462,80.34462 0 0 1 5.081,-24.59192 84.28289,84.28289 0 0 1 14.36763,-24.761 c 0.38183,-0.45624 1.01461,0.22181 0.63527,0.67508 z"
         fill="#ffffff"
         id="path5" /><path
         d="m 102.24579,682.65628 a 12.42481,12.42481 0 0 1 -9.870713,-12.7051 0.46382,0.46382 0 0 1 0.92692,0.0165 11.5051,11.5051 0 0 0 9.206003,11.79963 c 0.58434,0.11925 0.31881,1.00754 -0.26219,0.889 z"
         fill="#ffffff"
         id="path6" /><path
         d="m 106.96338,707.65588 a 23.94779,23.94779 0 0 0 10.24583,-14.1284 c 0.14979,-0.5778 1.03858,-0.31491 0.889,0.26219 a 24.90931,24.90931 0 0 1 -10.6916,14.68021 c -0.50389,0.3212 -0.94436,-0.49454 -0.44321,-0.814 z"
         fill="#ffffff"
         id="path7" /><path
         d="m 110.48403,656.94866 a 7.033,7.033 0 0 0 6.65065,-0.55213 c 0.49957,-0.32743 0.93953,0.4887 0.44321,0.814 a 7.88112,7.88112 0 0 1 -7.356,0.62711 0.479,0.479 0 0 1 -0.3134,-0.57558 0.46577,0.46577 0 0 1 0.57558,-0.3134 z"
         fill="#ffffff"
         id="path8" /><path
         d="m 182.87706,675.94409 c -0.30612,0.21332 -0.61225,0.42665 -0.9185,0.64781 a 92.6218,92.6218 0 0 0 -11.53975,9.62135 c -0.28108,0.26731 -0.56191,0.54245 -0.83472,0.81728 a 97.64351,97.64351 0 0 0 -20.26326,29.69444 94.82393,94.82393 0 0 0 -4.76,13.59853 c -1.71145,6.41778 -3.05648,13.51247 -6.68141,18.83344 a 16.26654,16.26654 0 0 1 -1.21642,1.60434 l -34.26752,1.10069 c -0.0791,-0.0366 -0.1584,-0.0654 -0.23791,-0.10194 l -1.36619,0.10651 c 0.0472,-0.24413 0.10137,-0.49632 0.14856,-0.74045 0.0268,-0.14173 0.0612,-0.28371 0.088,-0.42543 0.0203,-0.0946 0.0409,-0.18919 0.0538,-0.27568 0.007,-0.0315 0.0136,-0.063 0.0205,-0.0867 0.0129,-0.0865 0.034,-0.16546 0.0472,-0.24413 q 0.4485,-2.11575 0.92832,-4.23256 c -2.6e-4,-0.008 -2.6e-4,-0.008 0.007,-0.0159 a 139.42479,139.42479 0 0 1 10.73844,-31.165 c 0.14723,-0.2943 0.29382,-0.59642 0.4567,-0.89122 a 90.48439,90.48439 0 0 1 7.7275,-12.58252 79.99247,79.99247 0 0 1 5.12866,-6.26144 66.51838,66.51838 0 0 1 16.2368,-12.99672 c 12.082,-6.88393 26.2312,-9.82718 39.49344,-6.28522 0.33919,0.0908 0.67114,0.18187 1.0106,0.28055 z"
         fill="#f0f0f0"
         id="path9" /><path
         d="m 182.81399,676.38149 a 82.81446,82.81446 0 0 0 -43.67948,26.23454 35.66307,35.66307 0 0 0 -6.1017,9.36074 20.45429,20.45429 0 0 0 -1.30765,10.68524 c 0.42275,3.38013 1.24661,6.78868 0.84034,10.21271 a 12.52414,12.52414 0 0 1 -5.39032,8.70941 c -3.57744,2.56121 -7.86182,3.68426 -12.08975,4.63689 -4.69432,1.05773 -9.587,2.082 -13.43439,5.159 -0.46616,0.37282 -1.0174,-0.37231 -0.55194,-0.74457 6.6938,-5.35349 15.91957,-4.57153 23.30632,-8.43634 3.44679,-1.80339 6.371,-4.65645 7.11246,-8.60207 0.64838,-3.45028 -0.19818,-6.96593 -0.6558,-10.38468 a 21.82624,21.82624 0 0 1 0.88932,-10.4955 32.96931,32.96931 0 0 1 5.7193,-9.5608 80.34493,80.34493 0 0 1 18.86294,-16.57609 84.28291,84.28291 0 0 1 26.37956,-11.12 c 0.57956,-0.1344 0.67657,0.788 0.10079,0.92149 z"
         fill="#ffffff"
         id="path10" /><path
         d="m 142.56984,698.17528 a 12.42481,12.42481 0 0 1 -0.23186,-16.08716 c 0.38108,-0.45868 1.11175,0.112 0.73016,0.57125 a 11.50509,11.50509 0 0 0 0.24627,14.964 c 0.39477,0.447 -0.35206,0.99642 -0.74457,0.55194 z"
         fill="#ffffff"
         id="path11" /><path
         d="m 131.28509,720.97638 a 23.9478,23.9478 0 0 0 16.687,-5.112 c 0.46747,-0.37116 1.01885,0.37385 0.55195,0.74457 a 24.90931,24.90931 0 0 1 -17.37515,5.28424 c -0.59571,-0.0469 -0.45627,-0.96343 0.13621,-0.91677 z"
         fill="#ffffff"
         id="path12" /><path
         d="m 164.62538,682.60918 a 7.033,7.033 0 0 0 5.64259,3.5633 c 0.596,0.0393 0.45593,0.95586 -0.1362,0.91678 a 7.88113,7.88113 0 0 1 -6.251,-3.92813 0.479,0.479 0 0 1 0.0963,-0.64826 0.46577,0.46577 0 0 1 0.64826,0.0963 z"
         fill="#ffffff"
         id="path13" /><path
         d="m 647.83306,689.97103 c -1.9239,-20.941 -14.19024,-41.90707 -33.86412,-49.33368 a 96.88959,96.88959 0 0 1 -2.14043,66.48675 c -3.3222,8.16987 -7.868,16.91081 -5.26047,25.33611 1.62234,5.24245 5.87119,9.35 10.68331,11.98756 4.81242,2.63758 10.20365,3.9942 15.52769,5.325 l 1.02709,0.90654 c 9.12822,-18.94472 15.9508,-39.76729 14.02693,-60.70828 z"
         fill="#f0f0f0"
         id="path14" /><path
         d="m 613.75887,641.0254 a 82.81443,82.81443 0 0 1 19.08061,47.24488 35.66274,35.66274 0 0 1 -0.76394,11.14767 20.45415,20.45415 0 0 1 -5.38917,9.31886 c -2.37261,2.44432 -5.0826,4.66983 -6.81972,7.64833 a 12.52416,12.52416 0 0 0 -0.93979,10.19932 c 1.31436,4.19886 4.05905,7.675 6.86126,10.98117 3.11132,3.67084 6.40117,7.43439 7.62052,12.20761 0.14774,0.57835 1.03649,0.31529 0.889,-0.26218 -2.12146,-8.3046 -9.95851,-13.2348 -13.52953,-20.768 -1.66631,-3.51511 -2.28339,-7.55368 -0.49987,-11.15046 1.55961,-3.14523 4.35221,-5.44259 6.77592,-7.89675 a 21.82617,21.82617 0 0 0 5.60894,-8.9155 32.96955,32.96955 0 0 0 1.18972,-11.07717 80.34491,80.34491 0 0 0 -5.081,-24.59192 84.28311,84.28311 0 0 0 -14.36763,-24.761 c -0.38183,-0.45624 -1.01461,0.22181 -0.63528,0.67508 z"
         fill="#ffffff"
         id="path15" /><path
         d="m 632.77021,682.65628 a 12.42481,12.42481 0 0 0 9.87071,-12.7051 0.46382,0.46382 0 0 0 -0.92693,0.0165 11.5051,11.5051 0 0 1 -9.206,11.79963 c -0.58435,0.11925 -0.31882,1.00754 0.26219,0.889 z"
         fill="#ffffff"
         id="path16" /><path
         d="m 628.05261,707.65588 a 23.94787,23.94787 0 0 1 -10.24583,-14.1284 c -0.14978,-0.5778 -1.03858,-0.31491 -0.889,0.26219 a 24.90927,24.90927 0 0 0 10.6916,14.68021 c 0.50388,0.3212 0.94436,-0.49454 0.4432,-0.814 z"
         fill="#ffffff"
         id="path17" /><path
         d="m 624.53193,656.94866 a 7.033,7.033 0 0 1 -6.65065,-0.55213 c -0.49957,-0.32743 -0.93952,0.4887 -0.44321,0.814 a 7.88114,7.88114 0 0 0 7.356,0.62711 0.479,0.479 0 0 0 0.31339,-0.57558 0.46576,0.46576 0 0 0 -0.57558,-0.3134 z"
         fill="#ffffff"
         id="path18" /><path
         d="m 552.13893,675.94409 c 0.30612,0.21332 0.61225,0.42665 0.9185,0.64781 a 92.6218,92.6218 0 0 1 11.53975,9.62135 c 0.28108,0.26731 0.5619,0.54245 0.83472,0.81728 a 97.64351,97.64351 0 0 1 20.26327,29.69444 94.82389,94.82389 0 0 1 4.76,13.59853 c 1.71146,6.41778 3.05648,13.51247 6.68141,18.83344 a 16.2682,16.2682 0 0 0 1.21643,1.60434 l 34.26752,1.10071 c 0.0791,-0.0366 0.1584,-0.0654 0.23791,-0.10194 l 1.36619,0.10651 c -0.0472,-0.24413 -0.10138,-0.49632 -0.14856,-0.74045 -0.0268,-0.14173 -0.0612,-0.28371 -0.088,-0.42543 -0.0203,-0.0946 -0.0409,-0.18919 -0.0538,-0.27568 -0.007,-0.0315 -0.0136,-0.063 -0.0205,-0.0867 -0.0129,-0.0865 -0.0341,-0.16546 -0.0472,-0.24413 q -0.4485,-2.11575 -0.92832,-4.23256 c 2.5e-4,-0.008 2.5e-4,-0.008 -0.007,-0.0159 a 139.42532,139.42532 0 0 0 -10.73845,-31.165 c -0.14722,-0.2943 -0.29382,-0.59642 -0.45669,-0.89122 a 90.4835,90.4835 0 0 0 -7.72751,-12.58252 79.99234,79.99234 0 0 0 -5.12865,-6.26144 66.51857,66.51857 0 0 0 -16.2368,-12.99672 c -12.082,-6.88393 -26.2312,-9.82718 -39.49344,-6.28522 -0.3392,0.0908 -0.67116,0.18185 -1.01062,0.28053 z"
         fill="#f0f0f0"
         id="path19" /><path
         d="m 552.202,676.38149 a 82.81442,82.81442 0 0 1 43.67948,26.23454 35.66256,35.66256 0 0 1 6.1017,9.36074 20.45408,20.45408 0 0 1 1.30765,10.6852 c -0.42275,3.38013 -1.2466,6.78868 -0.84033,10.21271 a 12.52414,12.52414 0 0 0 5.39032,8.70941 c 3.57744,2.56121 7.86182,3.68426 12.08975,4.63689 4.69431,1.05773 9.587,2.082 13.43439,5.159 0.46616,0.37282 1.0174,-0.37231 0.55194,-0.74457 -6.69381,-5.35349 -15.91957,-4.57153 -23.30632,-8.43634 -3.4468,-1.80339 -6.371,-4.65645 -7.11247,-8.60207 -0.64838,-3.45028 0.19819,-6.96593 0.65581,-10.38468 a 21.82624,21.82624 0 0 0 -0.88932,-10.4955 32.96934,32.96934 0 0 0 -5.71931,-9.5608 80.34453,80.34453 0 0 0 -18.86294,-16.57605 84.28281,84.28281 0 0 0 -26.37956,-11.12 c -0.57956,-0.1344 -0.67656,0.788 -0.10079,0.92149 z"
         fill="#ffffff"
         id="path20" /><path
         d="m 592.44616,698.17528 a 12.42481,12.42481 0 0 0 0.23186,-16.08716 c -0.38108,-0.45868 -1.11175,0.112 -0.73016,0.57125 a 11.5051,11.5051 0 0 1 -0.24627,14.964 c -0.39477,0.447 0.35205,0.99642 0.74457,0.55194 z"
         fill="#ffffff"
         id="path21" /><path
         d="m 603.73093,720.97638 a 23.94782,23.94782 0 0 1 -16.687,-5.112 c -0.46747,-0.37116 -1.01885,0.37385 -0.55194,0.74457 a 24.90928,24.90928 0 0 0 17.37514,5.28424 c 0.59572,-0.0469 0.45628,-0.96343 -0.1362,-0.91677 z"
         fill="#ffffff"
         id="path22" /><path
         d="m 570.39062,682.60918 a 7.033,7.033 0 0 1 -5.6426,3.5633 c -0.596,0.0393 -0.45593,0.95586 0.13621,0.91678 a 7.88113,7.88113 0 0 0 6.251,-3.92813 0.479,0.479 0 0 0 -0.0963,-0.64826 0.46576,0.46576 0 0 0 -0.64825,0.0963 z"
         fill="#ffffff"
         id="path23" /><path
         d="m 833.28162,753.53897 a 1.0553968,1.19287 0 0 1 -1.05277,1.19 H 43.647559 a 1.0528575,1.19 0 1 1 0,-2.38 H 832.22885 a 1.0553702,1.19284 0 0 1 1.05277,1.19 z"
         fill="#3f3d56"
         id="path24"
         style="stroke-width:0.940614" /><circle
         cx="565.20953"
         cy="288.69907"
         r="4.5"
         fill="#3f3d56"
         id="circle24" /><path
         d="m 508.86067,323.3611 60.66693,-38.11439 a 4.796,4.796 0 1 1 4.7247,8.33631 l -63.86869,32.46512 a 1.54589,1.54589 0 0 1 -1.52294,-2.687 z"
         fill="#e4e4e4"
         id="path25" /><path
         d="m 387.15039,405.43057 a 4.2019,4.2019 0 0 1 0.0692,-4.7904 9.89062,9.89062 0 0 1 3.96609,-3.145 33.10093,33.10093 0 0 1 10.3488,-3.27037 c 2.74024,-0.389 5.73142,-0.51308 7.857,-2.28572 2.11163,-1.761 3.289,-5.05381 6.02487,-5.32862 2.64516,-0.26571 4.67864,2.62949 7.331,2.80923 3.26926,0.22155 5.40986,-3.60486 8.59126,-4.38961 2.12951,-0.52529 4.31916,0.40172 6.31656,1.30789 l 11.98707,5.43821 6.14422,2.78748 c 2.14618,0.97366 4.56646,2.28482 4.9716,4.60644 0.55667,3.18991 -2.99056,5.44068 -6.0242,6.57313 a 96.9698,96.9698 0 0 1 -67.12484,0.008"
         fill="#6c63ff"
         id="path26" /><ellipse
         cx="405.20944"
         cy="441.69897"
         rx="157.5"
         ry="22.5"
         fill="#3f3d56"
         id="ellipse26" /><rect
         x="607.70947"
         y="581.19897"
         width="126"
         height="18"
         rx="8.9999905"
         fill="#3f3d56"
         id="rect26" /><path
         d="m 777.0493,420.73897 -35.66993,169.45 9.29,43.37 17.54,81.85 v 36.79 a 0.77571,0.77571 0 0 1 -0.01,0.15 6.93531,6.93531 0 0 1 -0.44043,2.38 h -14.09953 a 6.93483,6.93483 0 0 1 -0.44043,-2.38 0.77493,0.77493 0 0 1 -0.01,-0.15 v -35.21 l -15.91992,-74.29 -3.22021,-15 -6.23,-29.07 -1.79981,-8.42 v -0.01 l 1.77979,-8.44 1.37011,-6.51 33.18018,-157.59 a 7.49966,7.49966 0 1 1 14.67969,3.07995 z"
         fill="#3f3d56"
         id="path27" /><path
         d="m 624.20945,590.19897 v 162 a 0.77571,0.77571 0 0 1 -0.01,0.15 6.93531,6.93531 0 0 1 -0.44043,2.38 h -14.09961 a 6.93483,6.93483 0 0 1 -0.44043,-2.38 0.77493,0.77493 0 0 1 -0.01,-0.15 v -162 a 7.5,7.5 0 0 1 15,0 z"
         fill="#3f3d56"
         id="path28" /><path
         d="m 634.70942,563.19896 h 72.00005 a 27,27 0 0 1 27,27 v 0 h -126 v 0 a 27,27 0 0 1 26.99995,-27 z"
         fill="#3f3d56"
         id="path29" /><path
         d="m 742.70945,642.69897 h -126 a 7.5,7.5 0 0 1 0,-15 h 126 a 7.5,7.5 0 0 1 0,15 z"
         fill="#3f3d56"
         id="path30" /><rect
         x="-292.70944"
         y="-599.47168"
         width="145.09091"
         height="20.72727"
         rx="8.9999905"
         transform="scale(-1)"
         fill="#3f3d56"
         id="rect30" /><path
         d="m 155.30955,589.22897 -2.30029,9.48 -8.43994,34.72 -3.63965,15 -16.90039,69.58 v 30.19 a 7.39225,7.39225 0 0 1 -1.25977,4.15 7.24146,7.24146 0 0 1 -2.56982,2.38 h -7.34034 a 7.24155,7.24155 0 0 1 -2.56982,-2.38 7.39271,7.39271 0 0 1 -1.26025,-4.15 v -31.99 l 18.78027,-77.3 12.12012,-49.92 -41.100103,-195.25 a 7.49488,7.49488 0 1 1 14.669923,-3.07995 l 37.99024,180.43 1.75,8.32 2.03955,9.69995 z"
         fill="#3f3d56"
         id="path31" /><path
         d="m 289.84959,589.10897 v 159.09 a 7.3889,7.3889 0 0 1 -1.26025,4.15 7.24158,7.24158 0 0 1 -2.56983,2.38 h -7.3501 a 7.29875,7.29875 0 0 1 -2.56006,-2.38 7.39232,7.39232 0 0 1 -1.25976,-4.15 v -159.09 a 7.5,7.5 0 1 1 15,0 z"
         fill="#3f3d56"
         id="path32" /><path
         d="M 292.70944,589.10805 H 147.61852 v -4.09094 a 27,27 0 0 1 27,-27 h 91.091 a 27,27 0 0 1 27,27 v 4.09094 z"
         fill="#3f3d56"
         id="path33" /><path
         d="M 282.34593,648.42597 H 137.25486 a 7.5,7.5 0 0 1 0,-15 h 145.09107 a 7.5,7.5 0 0 1 0,15 z"
         fill="#3f3d56"
         id="path34" /><polygon
         points="506.869,646.349 477.713,708.651 461.95,701.112 483.603,635.223 "
         fill="#9e616a"
         id="polygon34"
         transform="translate(-8.9022128,5.19896)" /><polygon
         points="568.051,635.845 584.542,702.683 567.592,706.865 543.033,642.018 "
         fill="#9e616a"
         id="polygon35"
         transform="translate(-8.9022128,5.19896)" /><path
         d="m 510.67293,427.46606 a 16.433,16.433 0 0 0 22.26167,5.58495 15.74179,15.74179 0 0 0 2.11245,-1.53084 l 49.8364,28.59974 -2.16452,-29.35838 -46.99365,-22.65784 a 16.372,16.372 0 0 0 -19.85968,-2.58668 15.75545,15.75545 0 0 0 -5.19267,21.94905 z"
         fill="#9e616a"
         id="path35" /><path
         d="m 563.45738,449.35054 8.80951,5.36868 39.5639,24.126 a 23.32784,23.32784 0 0 0 32.16238,-7.42342 22.825,22.825 0 0 0 2.90931,-16.11318 L 629.31793,367.4563 a 24.37655,24.37655 0 0 0 -32,-18.49875 23.20943,23.20943 0 0 0 -14.644,28.19538 l 18.38734,62.34711 -28.185,-13.14051 z"
         fill="#e6e6e6"
         id="path36" /><path
         d="m 542.6286,689.70921 -27.12378,-54.39893 0.003,-0.12451 2.678,-99.77637 c 0.0335,-0.8872 0.10523,-1.7788 0.21338,-2.65576 a 30.35216,30.35216 0 0 1 11.54831,-20.42578 29.16492,29.16492 0 0 1 21.75366,-5.94922 l 77.56006,10.03711 2.6897,-10.99853 0.501,-0.18262 74.31446,-27.23535 0.42822,0.69726 c 9.73267,15.83643 16.53662,47.46973 18.39014,56.7876 l 0.0266,0.13428 c 0.0391,0.19629 0.0625,0.31543 0.0706,0.3501 3.82569,15.90088 -11.98193,42.24121 -27.72924,46.20019 -33.17041,8.45459 -62.8357,1.85987 -97.18555,-5.77783 -12.31738,-2.73975 -25.04712,-5.5708 -39.06909,-8.01855 l 0.41675,8.25244 a 61.84049,61.84049 0 0 0 3.91235,18.5625 c 2.5,7.32226 4.47485,13.106 0.29883,25.165 l -2.01978,5.83349 a 19.88415,19.88415 0 0 1 -2.04468,17.62891 l -0.406,0.6206 17.88719,45.26373 z"
         fill="#2f2e41"
         id="path37" /><path
         d="m 498.06317,665.65208 -32.345,-3.00635 11.459,-36.647 a 239.26533,239.26533 0 0 1 17.67431,-69.51709 l 15.63038,-37.042 c 0.0361,-0.82422 0.10546,-1.65381 0.20629,-2.4668 a 30.347,30.347 0 0 1 11.5481,-20.42529 29.18137,29.18137 0 0 1 21.75317,-5.94873 l 77.44556,10.02246 3.37305,-28.311 74.33447,-9.94726 0.34033,0.55371 c 12.99292,21.14014 21.2417,37.68994 25.95923,52.08349 0.23682,0.73389 0.44727,1.48292 0.62671,2.229 3.85181,16.0083 -5.76343,32.23828 -21.43384,36.17871 -39.93481,10.18164 -87.95727,9.89893 -151.09619,-0.894 l -30.55711,72.71969 a 111.67644,111.67644 0 0 1 -10.793,19.7959 z"
         fill="#2f2e41"
         id="path38" /><ellipse
         cx="610.88733"
         cy="260.23578"
         rx="37.4674"
         ry="38.30238"
         fill="#9e616a"
         id="ellipse38" /><path
         d="m 621.70579,501.95823 -5.376,-19.25927 -1.32181,-9.5 -7.727,0.25781 -15.1648,-35.00342 -5.89014,-9.23 q -1.80176,-1.897 -3.26464,-3.64844 a 82.2256,82.2256 0 0 1 -14.55518,-23.4375 61.5809,61.5809 0 0 1 -4.26074,-19.30078 c -1.09912,-19.55762 7.14526,-40.24951 25.20556,-63.25439 a 10.854,10.854 0 0 1 -0.58813,-2.52246 10.67121,10.67121 0 0 1 9.27832,-11.814 l 17.41919,-1.95605 a 10.28132,10.28132 0 0 1 7.62329,2.22265 10.68765,10.68765 0 0 1 3.948,7.25537 10.9284,10.9284 0 0 1 -1.23194,6.31934 46.51989,46.51989 0 0 1 38.60987,32.48877 308.94655,308.94655 0 0 1 24.78077,61.20611 c 1.19263,4.15821 0.66162,8.44239 0.148,12.58545 -0.47437,3.82715 -0.96484,7.78467 -0.13989,11.729 0.83886,4.01172 2.85717,8.03613 4.99414,12.29687 2.44751,4.87988 4.97827,9.92578 5.66235,15.06934 l 0.0481,0.36133 z"
         fill="#e4e4e4"
         id="path39" /><path
         d="m 568.86907,401.94797 a 81.957,81.957 0 0 0 14.47573,23.30551 c 1.04493,1.24772 2.14838,2.47334 3.3032,3.70118 l 5.927,9.29971 c 21.84824,-16.37654 39.55,-80.85776 39.55,-80.85776 l -24.6511,-4.79533 z"
         opacity="0.2"
         style="isolation:isolate"
         id="path40" /><path
         d="m 553.94493,302.11641 a 16.47078,16.47078 0 0 1 -5.56191,22.28968 15.80431,15.80431 0 0 1 -2.34527,1.15035 l 1.745,57.43486 -24.87223,-15.6571 2.15608,-52.14071 a 16.42509,16.42509 0 0 1 7.07459,-18.76314 15.71878,15.71878 0 0 1 21.80374,5.68606 z"
         fill="#9e616a"
         id="path41" /><path
         d="m 549.96882,361.31124 -27.352,3.88946 1.17607,56.64156 a 23.69944,23.69944 0 0 0 11.58612,19.97234 v 0 a 22.70767,22.70767 0 0 0 27.12461,-3.07962 l 64.57517,-62.11225 a 24.48393,24.48393 0 0 0 1.80419,-33.6205 v 0 a 23.22022,23.22022 0 0 0 -33.26753,-2.27793 23.82216,23.82216 0 0 0 -1.81824,1.811 l -42.6395,49.05243 z"
         fill="#e6e6e6"
         id="path42" /><polygon
         points="330.101,650.684 330.104,725.568 349.518,725.567 358.754,650.683 "
         fill="#ffb6b6"
         id="polygon42"
         transform="translate(-8.9022128,5.19896)" /><circle
         cx="211.1588"
         cy="260.90152"
         r="38.748428"
         fill="#ffb6b6"
         id="circle42" /><path
         d="m 346.95193,707.69897 h -27.492 l -7.009,-9.395 -1.897,-8.85157 -1.633,-1.58007 a 13.62814,13.62814 0 0 1 -2.29785,-16.76026 l -19.92481,-92.96142 c -5.21826,-0.459 -64.06933,-5.72071 -104.97839,-12.96094 -10.46961,-1.85254 -18.64368,-6.9419 -24.29553,-15.126 -13.8877,-20.11084 -7.9386,-52.65088 -7.877,-52.97705 l 0.0686,-0.36279 0.36694,-0.0415 95.55469,-10.72509 0.12866,0.061 c 3.1709,1.502 77.80127,36.93164 89.99707,49.12744 5.50732,5.50733 17.79395,38.22754 20.54468,73.01367 0.49267,6.23145 -1.28052,12.57813 -2.99536,18.71582 -1.6045,5.74268 -3.26343,11.68067 -2.93579,17.29444 0.50585,8.66162 0.9851,17.74756 1.425,27.00537 0.0701,1.4751 1.18164,3.002 2.25635,4.478 1.1228,1.54248 2.18335,2.999 2.25073,4.52392 0.65332,14.78369 -9.00927,27.208 -9.10693,27.33155 z"
         fill="#2f2e41"
         id="path43" /><path
         d="m 353.21207,364.10773 a 14.7609,14.7609 0 0 0 -18.59331,12.907 l -32.19537,10.06254 1.34311,21.05646 45.26651,-14.84876 a 14.84092,14.84092 0 0 0 4.17906,-29.17721 z"
         fill="#ffb6b6"
         id="path44" /><path
         d="m 332.20577,398.95208 -24.06228,9.10717 -0.61523,1.19358 a 12.1398,12.1398 0 0 1 -16.35271,5.22852 v 0 l -54.08442,20.47007 c 0,0 -24.15305,-24.17025 -41.34909,-45.74079 l 5.8607,-36.048 a 69.05689,69.05689 0 0 1 8.511,-23.72592 c 35.26609,7.73316 55.51,57.03221 55.51,57.03221 l 63.55833,-12.12729 z"
         fill="#6c63ff"
         id="path45" /><path
         d="m 205.6525,297.57879 c -9.70064,2.61994 -20.39528,-0.8633 -27.96568,-7.47053 -7.5704,-6.60723 -12.306,-15.96964 -15.0346,-25.64027 -1.99838,-7.08256 -2.94593,-14.94453 0.20763,-21.59369 3.15356,-6.64916 11.64084,-11.13518 18.18877,-7.77649 -4.03938,-4.70621 -2.02136,-12.49 2.69631,-16.516 4.71767,-4.026 11.1958,-5.18025 17.36563,-5.81122 8.95416,-0.9157 18.20329,-1.01819 26.72387,1.88268 8.52058,2.90087 16.26232,9.243 18.929,17.83979 a 13.57771,13.57771 0 0 0 16.19474,-3.65644 12.30114,12.30114 0 0 1 -6.77771,13.338 l 13.05515,-4.23261 c 2.24521,4.75241 -1.68893,10.63424 -6.71986,12.15611 -5.03093,1.52187 -10.4616,-0.1416 -15.2357,-2.34029 -4.7741,-2.19869 -9.40062,-4.97846 -14.58628,-5.836 -5.18566,-0.85754 -11.27694,0.80875 -13.67558,5.48558 -1.25633,2.44957 -1.32185,5.31842 -2.05127,7.973 -0.72942,2.65458 -2.57715,5.40676 -5.32152,5.624 -1.73388,0.13726 -3.43146,-0.78632 -5.16048,-0.59747 -2.14355,0.23412 -3.78423,2.17584 -4.35509,4.2552 a 16.3259,16.3259 0 0 0 -0.0155,6.42345 l 3.3162,25.34806"
         fill="#2f2e41"
         id="path46" /><path
         d="m 157.64707,554.69407 a 0.09365,0.09365 0 0 1 -0.0218,-0.002 l -0.30639,-0.0522 -0.0886,-0.29786 c -1.114,-3.74707 -2.53161,-7.58252 -3.90258,-11.292 a 136.15989,136.15989 0 0 1 -5.105,-15.73633 120.52464,120.52464 0 0 1 -2.25623,-15.49072 c -0.38245,-3.78027 -0.77795,-7.68945 -1.45044,-11.5376 -0.29858,-1.70849 0.833,-3.32666 1.92737,-4.8916 1.01465,-1.45068 1.97314,-2.82129 1.772,-4.11767 -0.20569,-1.32569 -1.6759,-2.78174 -3.09765,-4.18995 -1.55848,-1.54345 -3.17005,-3.13964 -3.3982,-4.81933 a 480.11343,480.11343 0 0 1 -4.32593,-69.16358 c 0.32105,-32.00048 1.76722,-53.8125 4.29822,-64.831 6.80579,-29.627 38.2489,-35.03369 43.17053,-35.70117 a 10.86785,10.86785 0 0 1 14.69816,-6.06209 l 22.34082,10.22705 a 36.37112,36.37112 0 0 1 19.33789,21.59717 l 3.31885,10.11768 1.66235,67.91943 -9.21244,47.82867 18,27 c -95.9336,52.66991 -97.05197,63.4951 -97.36093,63.4951 z"
         fill="#6c63ff"
         id="path47" /><path
         d="m 310.75473,723.22127 6.3122,-2.5e-4 24.64379,-10.02205 13.20832,10.02052 h 0.002 a 28.14649,28.14649 0 0 1 28.14475,28.14448 v 0.9146 l -72.30972,0.003 z"
         fill="#2f2e41"
         id="path48" /><path
         d="m 361.27334,412.57548 a 14.7609,14.7609 0 0 0 -21.31677,7.60906 l -33.70564,1.31433 -4.54148,15.7001 47.91729,2.45291 a 14.84092,14.84092 0 0 0 11.6466,-27.07639 z"
         fill="#ffb6b6"
         id="path49" /><path
         d="m 333.58683,441.34497 -34.62256,-0.43159 -4.38261,-0.0593 -70.44105,-0.88753 c 0,0 -19.1288,-18.24916 -35.78527,-37.038 l 2.33461,-16.88619 a 68.99105,68.99105 0 0 1 23.13233,-42.71581 c 23.856,15.94043 37.69063,47.49273 37.69063,47.49273 l 23.19654,10.37972 v 0 a 101.559,101.559 0 0 1 46.37166,13.58062 l 7.62831,4.41938 z"
         fill="#6c63ff"
         id="path50" /><path
         d="m 588.008,739.82305 -11.52,2.843 -4.7404,-10.36878 -2.58228,12.17593 -30.55377,7.5403 a 7.07427,7.07427 0 0 1 -6.99256,-11.557 l 20.2407,-22.87253 -2.71356,-10.9955 26.04187,-4.80175 z"
         fill="#2f2e41"
         id="path51" /><path
         d="m 465.96641,743.37812 -10.9857,-4.48415 2.27264,-11.1722 -9.25569,8.32188 -29.13673,-11.89291 a 7.07427,7.07427 0 0 1 1.15167,-13.45856 l 29.82691,-6.57216 4.28,-10.48554 23.87732,11.4503 z"
         fill="#2f2e41"
         id="path52" /><path
         d="m 427.70941,437.69897 h -9 a 36.54143,36.54143 0 0 1 -36.5,-36.5 v -0.5 h 82 v 0.5 a 36.54143,36.54143 0 0 1 -36.5,36.5 z"
         fill="#e4e4e4"
         id="path53" /><path
         d="m 418.70945,387.69897 c 0,2.48528 -4.5,4.5 -4.5,4.5 0,0 -4.5,-2.01472 -4.5,-4.5 0,-2.48528 4.5,-4.5 4.5,-4.5 0,0 4.5,2.0147 4.5,4.5 z"
         fill="#3f3d56"
         id="path54" /><path
         d="m 445.70945,387.69897 c 0,2.48528 -4.5,4.5 -4.5,4.5 0,0 -4.5,-2.01472 -4.5,-4.5 0,-2.48528 4.5,-4.5 4.5,-4.5 0,0 4.5,2.0147 4.5,4.5 z"
         fill="#3f3d56"
         id="path55" /><path
         d="m 427.70945,396.69897 c 0,2.48528 -4.5,4.5 -4.5,4.5 0,0 -4.5,-2.01472 -4.5,-4.5 0,-2.48528 4.5,-4.5 4.5,-4.5 0,0 4.5,2.0147 4.5,4.5 z"
         fill="#3f3d56"
         id="path56" /><circle
         cx="396.20944"
         cy="373.69897"
         r="4.5"
         fill="#3f3d56"
         id="circle56" /><path
         d="m 330.76381,364.02825 70.97258,9.80189 a 4.796,4.796 0 1 1 -1.73958,9.42288 l -69.7937,-16.18747 a 1.54589,1.54589 0 0 1 0.5607,-3.0373 z"
         fill="#e4e4e4"
         id="path57" /><path
         d="m 442.43816,-505.37769 v -135.21288 h -9 v 135.21288 a 49.49773,49.49773 0 0 0 -45,49.287 v 13.50012 h 31.5 a 18,18 0 0 0 36,0 h 31.5 v -13.50008 a 49.49773,49.49773 0 0 0 -45,-49.28704 z"
         fill="#f0f0f0"
         id="path58"
         style="fill:#032b44;fill-opacity:1" /><path
         d="m 558.31316,-539.18092 v -101.40965 h -6.75 v 101.40965 a 37.12331,37.12331 0 0 0 -33.75,36.96529 v 10.12506 h 23.625 a 13.5,13.5 0 1 0 27,0 h 23.625 v -10.12506 a 37.12332,37.12332 0 0 0 -33.75,-36.96529 z"
         fill="#f0f0f0"
         id="path59"
         style="fill:#032b44;fill-opacity:1" /><path
         style="fill:#ffffff;fill-opacity:0.628755;stroke:#ffffff;stroke-width:0;stroke-linecap:round;stroke-linejoin:round;stroke-dasharray:none;stroke-opacity:1;paint-order:stroke fill markers"
         id="path62-5-1"
         d="m 568.94563,-492.11752 a 13.879648,14.904931 0 0 1 -13.76908,14.90445 13.879648,14.904931 0 0 1 -13.98846,-14.66699 l 13.87789,-0.23746 z" /><path
         d="m 330.31316,-539.18092 v -101.40965 h -6.75 v 101.40965 a 37.12331,37.12331 0 0 0 -33.75,36.96529 v 10.12506 h 23.625 a 13.5,13.5 0 1 0 27,0 h 23.625 v -10.12506 a 37.12332,37.12332 0 0 0 -33.75,-36.96529 z"
         fill="#f0f0f0"
         id="path60"
         style="fill:#032b44;fill-opacity:1" /><path
         d="m 711.14618,243.62419 c -6.36865,-7.42688 -9.39648,-17.28052 -14.48779,-25.71411 -5.09131,-8.43366 -13.95117,-15.98182 -23.311,-14.01923 -6.45214,1.353 -11.43847,7.04645 -13.96289,13.394 -2.52392,6.34754 -2.99707,13.3476 -3.43945,20.20526 0.15625,-14.09277 -9.12842,-27.75482 -21.91846,-32.25164 -12.78906,-4.49683 -28.09521,0.51916 -36.13183,11.84106 a 19.52937,19.52937 0 0 0 -25.93848,-0.54449 c -7.18848,6.4248 -8.7793,18.65332 -3.49268,26.84832 5.28662,8.195 16.73584,11.24787 25.13721,6.70282 l 2.97022,2.73224 c -1.67188,5.84748 1.57031,12.75476 7.0205,14.95593 4.41944,1.78516 10.6587,1.488 12.3125,6.12592 1.15577,3.24066 -1.00439,6.69971 -3.30224,9.18994 -2.29736,2.49018 -5.02539,5.06171 -5.30127,8.50769 -0.417,5.1994 4.956,8.84168 9.84033,9.9386 11.77734,2.64514 24.84522,-2.80872 31.6333,-13.20233 q 0.19629,-0.30066 0.42676,-0.60205 a 45.47993,45.47993 0 0 0 9.148,-34.77527 c -0.38184,-2.40222 0.003,-4.189 1.65918,-4.75793 7.15869,-2.459 27.21533,2.702 33.28515,7.36633 6.07032,4.66437 10.93116,10.83722 16.77784,15.80261 5.84716,4.96545 13.29785,8.79559 20.72168,7.44342 5.9458,-1.08295 11.0039,-5.39954 14.40625,-10.6062 3.40185,-5.20667 5.35986,-11.27576 7.11377,-17.30725 -13.14804,7.59525 -31.14218,4.41587 -41.1666,-7.27364 z"
         fill="#2f2e41"
         id="path61" /><path
         style="fill:#ffffff;fill-opacity:0.628755;stroke:#ffffff;stroke-width:0;stroke-linecap:round;stroke-linejoin:round;stroke-dasharray:none;stroke-opacity:1;paint-order:stroke fill markers"
         id="path62"
         d="m 456.45603,-442.77692 a 18.519051,19.887043 0 0 1 -18.37152,19.88642 18.519051,19.887043 0 0 1 -18.66423,-19.56958 l 18.5167,-0.31684 z" /><path
         style="fill:#ffffff;fill-opacity:0.628755;stroke:#ffffff;stroke-width:0;stroke-linecap:round;stroke-linejoin:round;stroke-dasharray:none;stroke-opacity:1;paint-order:stroke fill markers"
         id="path62-5"
         d="m 341.07862,-492.2543 a 13.879648,14.904931 0 0 1 -13.76908,14.90446 13.879648,14.904931 0 0 1 -13.98845,-14.667 l 13.87788,-0.23746 z" /></g></g></svg>
